<?xml version="1.0" encoding="UTF-8"?>
<svg width="230px" height="73px" viewBox="0 0 230 73" version="1.1" xmlns="http://www.w3.org/2000/svg" xmlns:xlink="http://www.w3.org/1999/xlink">
    <!-- Generator: sketchtool 40 (33762) - http://www.bohemiancoding.com/sketch -->
    <title>CF9122E9-BBE6-4384-BC48-EA6829408F18</title>
    <desc>Created with sketchtool.</desc>
    <defs></defs>
    <g id="Page-1" stroke="none" stroke-width="1" fill="none" fill-rule="evenodd">
        <g id="1.-Splash" transform="translate(-65.000000, -284.000000)" fill="#FFFFFF">
            <path d="M96.0177437,335.908872 C90.2766416,337.982048 84.2166803,339.01862 77.837678,339.01862 C72.8407928,339.01862 69.3323942,337.264421 67.3123768,333.755969 C65.7707846,331.044893 65,327.004919 65,321.635926 C65,318.499583 65.2524984,313.848297 65.7575027,307.681928 C66.2625071,301.515559 66.5150055,296.864273 66.5150055,293.72793 C66.5150055,293.143188 66.4618479,292.212931 66.3555312,290.93713 C66.2492145,289.66133 66.196057,288.704494 66.196057,288.066594 C66.196057,287.428693 66.2492145,286.711066 66.3555312,285.913691 C67.4186983,284.637891 68.7210584,284 70.2626506,284 C71.7510845,284 72.8939719,284.956836 73.6913472,286.870537 C74.3292474,288.358971 74.6481928,289.953697 74.6481928,291.654765 C74.6481928,295.269532 74.3026687,300.638446 73.6116101,307.761665 C72.9205515,314.884884 72.5750274,320.227218 72.5750274,323.788828 C72.5750274,330.061514 74.3558055,333.197809 77.9174151,333.197809 C79.5121657,333.197809 81.7979406,332.652944 84.7748083,331.563198 C87.7516761,330.473452 90.037451,329.928587 91.6322015,329.928587 C93.1206354,329.928587 94.2635228,330.593057 95.0608981,331.922015 C95.6987984,332.985182 96.0177437,334.314121 96.0177437,335.908872 L96.0177437,335.908872 Z M127.354436,330.96517 C127.354436,333.623087 125.547079,335.696232 121.932311,337.184666 C119.114918,338.35415 116.164674,338.938883 113.08149,338.938883 C104.895103,338.938883 100.801972,334.287597 100.801972,324.984885 C100.801972,321.157484 101.732229,316.904879 103.592771,312.226944 C105.87858,306.485842 108.642773,303.615334 111.885433,303.615334 C114.809142,303.615334 117.958727,304.917694 121.334283,307.522453 C124.709838,310.127213 126.39759,312.838248 126.39759,315.655641 C126.39759,319.164092 124.829442,321.954864 121.6931,324.028039 C118.928865,325.888582 115.633097,326.818839 111.805696,326.818839 C111.061479,326.818839 109.865434,326.367 108.217525,325.463308 C108.430158,330.513351 109.91857,333.038335 112.682804,333.038335 C115.021771,333.038335 117.320836,332.373866 119.580066,331.044907 C121.839296,329.715948 123.287839,329.051479 123.925739,329.051479 C126.211548,329.051479 127.354436,329.689369 127.354436,330.96517 L127.354436,330.96517 Z M118.663089,315.894852 C118.663089,314.565893 118.277696,313.303401 117.5069,312.107338 C116.736104,310.911276 115.712821,310.313253 114.437021,310.313253 C112.682795,310.313253 111.327278,311.084038 110.370427,312.62563 C109.573052,313.954589 109.17437,315.522736 109.17437,317.33012 C109.17437,318.340129 109.519894,319.164071 110.210953,319.801972 C110.902011,320.439872 111.779111,320.758817 112.842278,320.758817 C116.722838,320.758817 118.663089,319.137512 118.663089,315.894852 L118.663089,315.894852 Z M151.355312,309.436145 C151.355312,310.87142 149.149274,311.881414 144.73713,312.466156 C144.630814,313.635639 144.577656,316.293517 144.577656,320.439869 L144.577656,325.702519 C144.577656,326.765686 144.750418,328.333834 145.095947,330.40701 C145.441477,332.480186 145.614239,334.021755 145.614239,335.031763 C145.614239,335.882297 145.188978,336.639792 144.338445,337.304272 C143.487911,337.968751 142.63739,338.300986 141.786857,338.300986 C140.457898,338.300986 139.341589,337.158098 138.437897,334.872289 C137.746838,333.118064 137.401314,331.417022 137.401314,329.769113 L137.401314,312.864841 C134.95603,312.492733 133.547355,312.253524 133.175246,312.147207 C131.793129,311.72194 131.102081,311.110628 131.102081,310.313253 C131.102081,310.10062 131.155239,309.861411 131.261555,309.595619 C132.643672,307.62876 134.185242,306.645345 135.886309,306.645345 L136.364732,306.645345 C136.577365,306.698503 136.736838,306.725082 136.843154,306.725082 C137.95948,306.725082 138.491055,305.422722 138.437897,302.817963 L138.437897,296.997152 C138.118947,296.41241 137.959474,295.907414 137.959474,295.482147 C137.959474,294.791088 138.371445,294.166487 139.1954,293.608324 C140.019354,293.050162 140.803428,292.771084 141.547645,292.771084 C142.663971,292.771084 143.727122,293.289371 144.73713,294.325958 C145.747139,295.362546 146.252136,296.465566 146.252136,297.635049 C146.252136,298.91085 146.052795,300.173342 145.654107,301.422563 C145.25542,302.671784 145.082658,303.960855 145.135816,305.289814 L145.135816,305.608762 C149.282168,306.034029 151.355312,307.30981 151.355312,309.436145 L151.355312,309.436145 Z M154.704272,289.661336 C154.704272,288.438694 155.249137,287.348964 156.338883,286.392114 C157.428629,285.435264 158.691121,284.956846 160.126396,284.956846 C161.667989,284.956846 162.996928,285.647894 164.113253,287.030011 C165.229578,288.412128 165.787733,290.139749 165.787733,292.212924 C165.787733,294.445575 165.575103,296.279511 165.149836,297.714786 C164.724569,299.150062 163.980363,300.532158 162.917196,301.861117 C161.854029,303.243234 160.657984,304.42599 159.329025,305.409419 C158.000066,306.392849 156.804021,306.884556 155.740854,306.884556 C154.890321,306.77824 154.265719,306.446005 153.867032,305.887842 C153.468344,305.32968 153.56137,304.6785 154.146112,303.934283 C155.209279,303.349541 156.205983,302.631914 157.136254,301.78138 C158.066525,300.930846 158.744284,299.841117 159.169551,298.512158 C159.435343,297.767941 159.528368,296.957288 159.448631,296.080175 C159.368893,295.203062 158.877186,294.472146 157.973494,293.887404 C157.069802,293.302662 156.299017,292.717929 155.661117,292.133187 C155.023217,291.548445 154.704272,290.724503 154.704272,289.661336 L154.704272,289.661336 Z M194.971522,329.928587 C194.971522,332.42703 193.908371,334.606489 191.782037,336.467032 C189.44307,338.487049 186.306774,339.497043 182.373056,339.497043 C180.671989,339.550201 178.838053,339.204677 176.871194,338.46046 C170.492192,336.068334 167.302738,334.128083 167.302738,332.63965 C167.302738,330.300682 168.977201,329.131216 172.326177,329.131216 C172.804603,329.131216 173.309599,329.157795 173.841183,329.210953 C174.000658,330.805703 175.276439,332.081485 177.668565,333.038335 C179.741741,333.888869 181.735149,334.234393 183.64885,334.074918 C185.190442,333.968601 185.961227,333.410447 185.961227,332.400438 C185.961227,332.240963 185.921359,332.001754 185.841621,331.682804 C185.761884,331.363854 185.722015,331.111355 185.722015,330.925301 C185.722015,330.739247 184.712022,330.327276 182.692004,329.689376 C180.406195,328.998317 179.130414,328.599635 178.864622,328.493319 C172.80457,324.878551 169.774589,320.519631 169.774589,315.416429 C169.774589,312.333245 170.651689,309.489316 172.405915,306.884556 C174.372774,304.014005 176.818021,302.578751 179.741731,302.578751 C181.921223,302.578751 184.406339,303.429272 187.197152,305.13034 C189.987966,306.831407 191.702297,308.665342 192.340197,310.632202 C192.765464,312.014319 192.978094,313.157206 192.978094,314.060898 C192.978094,315.017748 192.8452,315.815112 192.579409,316.453012 C192.260458,317.250387 191.941513,318.047751 191.622563,318.845126 C190.612554,319.536185 189.602561,319.881709 188.592552,319.881709 C188.060968,319.881709 187.170579,319.549474 185.921358,318.884995 C184.672137,318.220515 184.047536,317.649071 184.047536,317.170646 C184.047536,316.958013 184.366481,316.266965 185.004381,315.097481 C185.37649,314.406422 185.562541,313.821689 185.562541,313.343264 C185.562541,310.153763 184.313339,308.559036 181.814896,308.559036 C180.326462,308.559036 179.183575,309.515872 178.386199,311.429573 C177.801457,312.918007 177.509091,314.512733 177.509091,316.213801 C177.509091,318.340135 179.024081,320.253807 182.054107,321.954874 C184.818342,323.177516 187.609113,324.426719 190.426506,325.702519 C193.456532,327.084636 194.971522,328.493312 194.971522,329.928587 L194.971522,329.928587 Z M240.34195,314.30011 C240.235633,315.629068 239.890109,317.968001 239.305367,321.316977 C238.773783,324.240686 238.507996,326.579619 238.507996,328.333844 C238.507996,329.928595 238.587732,332.320685 238.747207,335.510186 C238.906682,338.699687 238.986418,341.091777 238.986418,342.686528 C238.986418,345.982346 238.667473,348.427593 238.029573,350.022344 C237.285356,352.042361 235.876681,353.676956 233.803505,354.926177 C231.730329,356.175399 229.577448,356.8 227.344797,356.8 C225.00583,356.8 222.108743,356.162109 218.65345,354.886309 C214.507099,353.397875 212.433954,351.749991 212.433954,349.942607 C212.433954,347.603639 213.523684,346.434173 215.703176,346.434173 C216.713185,346.434173 217.404233,346.72654 217.776342,347.311281 C218.4674,348.374449 218.932529,349.012339 219.171742,349.224973 C219.410954,349.437606 220.274764,349.690104 221.763198,349.982475 C223.251632,350.274846 224.288204,350.42103 224.872946,350.42103 C229.657198,350.42103 232.049288,347.417628 232.049288,341.410734 C232.049288,339.656508 231.969552,338.168097 231.810077,336.945455 C229.524268,338.912314 226.786653,339.895728 223.597152,339.895728 C222.268193,339.895728 220.779782,339.523625 219.131873,338.779409 C217.483964,338.035192 216.234761,337.158092 215.384228,336.148083 C213.736319,334.234383 212.912377,331.390453 212.912377,327.61621 C212.912377,323.09775 213.948949,318.127519 216.022125,312.705367 C218.573726,306.060573 221.683443,302.738226 225.351369,302.738226 C227.58402,302.738226 229.710322,303.774798 231.73034,305.847974 C233.218773,307.814833 234.707185,309.755084 236.195619,311.668784 C236.620886,312.200368 237.285355,312.678786 238.189047,313.104053 C239.305373,313.635636 240.023,314.034318 240.34195,314.30011 L240.34195,314.30011 Z M232.288499,319.084337 C232.288499,318.286962 231.916397,317.622493 231.17218,317.090909 C230.85323,312.200341 229.152188,309.755093 226.069003,309.755093 C224.314778,309.755093 222.852945,312.226919 221.683461,317.170646 C220.832927,320.944889 220.407667,324.214079 220.407667,326.978313 C220.407667,332.187832 221.763185,334.792552 224.474261,334.792552 C227.025862,334.792552 229.045849,332.719407 230.534283,328.573056 C231.703766,325.383555 232.288499,322.22068 232.288499,319.084337 L232.288499,319.084337 Z M273.353122,322.273823 C273.353122,327.058074 272.157077,331.151206 269.764951,334.553341 C267.000716,338.4339 263.332845,340.374151 258.761227,340.374151 C254.083292,340.374151 250.548314,338.779424 248.156188,335.589923 C245.976696,332.772531 244.886966,328.945187 244.886966,324.107777 C244.886966,319.323525 246.083011,314.805133 248.475137,310.552464 C251.239371,305.502421 254.827506,302.977437 259.23965,302.977437 C260.621767,302.977437 262.349387,303.588749 264.422563,304.811391 C270.376298,308.373001 273.353122,314.193753 273.353122,322.273823 L273.353122,322.273823 Z M266.336254,322.114348 C266.336254,313.98112 264.369425,309.914567 260.435706,309.914567 C257.618314,309.914567 255.492012,311.642188 254.056736,315.097481 C252.993569,317.70224 252.461993,320.652484 252.461993,323.948302 C252.461993,331.018363 254.561717,334.553341 258.761227,334.553341 C261.472303,334.553341 263.49229,333.091508 264.821249,330.167798 C265.831257,327.935148 266.336254,325.250691 266.336254,322.114348 L266.336254,322.114348 Z M294.882147,287.428697 C294.882147,287.800805 294.749253,288.199487 294.483461,288.624754 C294.111353,289.209495 293.872144,289.581598 293.765827,289.741073 C292.543185,292.771099 291.639506,296.625022 291.054765,301.302957 C290.788973,302.950866 290.390291,306.937683 289.858708,313.263527 C289.858708,313.529319 289.792261,314.047605 289.659365,314.818401 C289.526469,315.589197 289.460022,316.187219 289.460022,316.612486 C289.460022,317.994603 289.752388,319.828539 290.33713,322.114348 C290.01818,322.539615 289.486605,323.124348 288.742388,323.868565 C288.157646,324.02804 287.519755,324.107777 286.828697,324.107777 C285.76553,324.107777 284.782115,323.841989 283.878423,323.310405 C283.081047,321.821971 282.682366,319.908299 282.682366,317.569332 C282.682366,315.124048 283.174073,311.496044 284.157503,306.685214 C285.140932,301.874383 285.63264,298.24638 285.63264,295.801095 C285.63264,294.844245 285.459878,293.395702 285.114348,291.455422 C284.768819,289.515142 284.596057,288.066598 284.596057,287.109748 C284.596057,286.578165 284.649215,286.126325 284.755531,285.754217 C286.08449,284.637891 287.705795,284.079737 289.619496,284.079737 C290.735822,284.079737 291.85213,284.345525 292.968456,284.877108 C294.244256,285.568167 294.882147,286.418688 294.882147,287.428697 L294.882147,287.428697 Z M292.56977,332.799124 C292.56977,336.839159 290.257416,338.859146 285.63264,338.859146 C284.782106,338.859146 283.160801,338.354149 280.768675,337.34414 C280.130774,336.174656 279.811829,335.058348 279.811829,333.995181 C279.811829,330.911996 281.698922,329.370427 285.473165,329.370427 C286.855283,329.370427 288.263958,329.636215 289.699233,330.167798 C291.612934,330.858857 292.56977,331.735957 292.56977,332.799124 L292.56977,332.799124 Z" id="Let’s-go!"></path>
        </g>
    </g>
</svg>